PathFileType	4	(X/Y/Z)	C:\Users\Willi\Documents\GitHub\processC3D_GUI\exampleC3Dfiles\test_R1\marker_experimental.trc
DataRate	CameraRate	NumFrames	NumMarkers	Units	OrigDataRate	OrigDataStartFrame	OrigNumFrames
1.500000e+02	1.500000e+02	4	179	m	1.500000e+02	165	188
Frame#	Time	C7			CLAV			COP_FP1			COP_FP2			COP_FP3			F_ForcePlate1			F_ForcePlate2			F_ForcePlate3			Force_FP1			Force_FP2			Force_FP3			LAJC			LANK			LASI			LAbsAnkleAngle			LAnkleAngles			LAnkleForce			LAnkleMoment			LAnklePower			LBHD			LELB			LElbowAngles			LElbowForce			LElbowMoment			LElbowPower			LFFootAngles			LFHD			LFIN			LFRA			LFootProgressAngles			LGRF			LGroundReactionForce			LGroundReactionMoment			LHEE			LHF			LHJC			LHeadAngles			LHipAngles			LHipForce			LHipMoment			LHipPower			LKJC			LKJCshank			LKNE			LKNEshank			LKneeAngles			LKneeForce			LKneeMoment			LKneePower			LM5D			LNeckAngles			LNeckForce			LNeckMoment			LNeckPower			LNormalisedGRF			LPelvisAngles			LS1			LS2			LS3			LSHO			LShoulderAngles			LShoulderForce			LShoulderMoment			LShoulderPower			LSpineAngles			LT1			LT2			LT3			LTHI			LTIB			LTOE			LThoraxAngles			LUPA			LWRA			LWRB			LWaistForce			LWaistMoment			LWaistPower			LWristAngles			LWristForce			LWristMoment			LWristPower			P_ForcePlate1			P_ForcePlate2			P_ForcePlate3			RAJC			RANK			RASI			RAbsAnkleAngle			RAnkleAngles			RAnkleForce			RAnkleMoment			RAnklePower			RBAK			RBHD			RELB			RElbowAngles			RElbowForce			RElbowMoment			RElbowPower			RFFootAngles			RFHD			RFIN			RFRA			RFootProgressAngles			RGRF			RGroundReactionForce			RGroundReactionMoment			RHEE			RHJC			RHeadAngles			RHipAngles			RHipForce			RHipMoment			RHipPower			RKJC			RKJCshank			RKNE			RKNEshank			RKneeAngles			RKneeForce			RKneeMoment			RKneePower			RM5D			RNeckAngles			RNeckForce			RNeckMoment			RNeckPower			RNormalisedGRF			RPelvisAngles			RS1			RS2			RS3			RSHO			RShoulderAngles			RShoulderForce			RShoulderMoment			RShoulderPower			RSpineAngles			RT1			RT2			RT3			RTHI			RTIB			RTOE			RThoraxAngles			RUPA			RWRA			RWRB			RWaistForce			RWaistMoment			RWaistPower			RWristAngles			RWristForce			RWristMoment			RWristPower			RawCentreFP1			RawCentreFP2			RawCentreFP3			RawForceFP1			RawForceFP2			RawForceFP3			RawMomentFP1			RawMomentFP2			RawMomentFP3			SACA			SACL			SACO			SACP			SACR			STRN			T10			VECTIP_FP1			VECTIP_FP2			VECTIP_FP3			funktLHIP			funktLKJC			funktRHIP			funktRKJC		
		X1	Y1	Z1	X2	Y2	Z2	X3	Y3	Z3	X4	Y4	Z4	X5	Y5	Z5	X6	Y6	Z6	X7	Y7	Z7	X8	Y8	Z8	X9	Y9	Z9	X10	Y10	Z10	X11	Y11	Z11	X12	Y12	Z12	X13	Y13	Z13	X14	Y14	Z14	X15	Y15	Z15	X16	Y16	Z16	X17	Y17	Z17	X18	Y18	Z18	X19	Y19	Z19	X20	Y20	Z20	X21	Y21	Z21	X22	Y22	Z22	X23	Y23	Z23	X24	Y24	Z24	X25	Y25	Z25	X26	Y26	Z26	X27	Y27	Z27	X28	Y28	Z28	X29	Y29	Z29	X30	Y30	Z30	X31	Y31	Z31	X32	Y32	Z32	X33	Y33	Z33	X34	Y34	Z34	X35	Y35	Z35	X36	Y36	Z36	X37	Y37	Z37	X38	Y38	Z38	X39	Y39	Z39	X40	Y40	Z40	X41	Y41	Z41	X42	Y42	Z42	X43	Y43	Z43	X44	Y44	Z44	X45	Y45	Z45	X46	Y46	Z46	X47	Y47	Z47	X48	Y48	Z48	X49	Y49	Z49	X50	Y50	Z50	X51	Y51	Z51	X52	Y52	Z52	X53	Y53	Z53	X54	Y54	Z54	X55	Y55	Z55	X56	Y56	Z56	X57	Y57	Z57	X58	Y58	Z58	X59	Y59	Z59	X60	Y60	Z60	X61	Y61	Z61	X62	Y62	Z62	X63	Y63	Z63	X64	Y64	Z64	X65	Y65	Z65	X66	Y66	Z66	X67	Y67	Z67	X68	Y68	Z68	X69	Y69	Z69	X70	Y70	Z70	X71	Y71	Z71	X72	Y72	Z72	X73	Y73	Z73	X74	Y74	Z74	X75	Y75	Z75	X76	Y76	Z76	X77	Y77	Z77	X78	Y78	Z78	X79	Y79	Z79	X80	Y80	Z80	X81	Y81	Z81	X82	Y82	Z82	X83	Y83	Z83	X84	Y84	Z84	X85	Y85	Z85	X86	Y86	Z86	X87	Y87	Z87	X88	Y88	Z88	X89	Y89	Z89	X90	Y90	Z90	X91	Y91	Z91	X92	Y92	Z92	X93	Y93	Z93	X94	Y94	Z94	X95	Y95	Z95	X96	Y96	Z96	X97	Y97	Z97	X98	Y98	Z98	X99	Y99	Z99	X100	Y100	Z100	X101	Y101	Z101	X102	Y102	Z102	X103	Y103	Z103	X104	Y104	Z104	X105	Y105	Z105	X106	Y106	Z106	X107	Y107	Z107	X108	Y108	Z108	X109	Y109	Z109	X110	Y110	Z110	X111	Y111	Z111	X112	Y112	Z112	X113	Y113	Z113	X114	Y114	Z114	X115	Y115	Z115	X116	Y116	Z116	X117	Y117	Z117	X118	Y118	Z118	X119	Y119	Z119	X120	Y120	Z120	X121	Y121	Z121	X122	Y122	Z122	X123	Y123	Z123	X124	Y124	Z124	X125	Y125	Z125	X126	Y126	Z126	X127	Y127	Z127	X128	Y128	Z128	X129	Y129	Z129	X130	Y130	Z130	X131	Y131	Z131	X132	Y132	Z132	X133	Y133	Z133	X134	Y134	Z134	X135	Y135	Z135	X136	Y136	Z136	X137	Y137	Z137	X138	Y138	Z138	X139	Y139	Z139	X140	Y140	Z140	X141	Y141	Z141	X142	Y142	Z142	X143	Y143	Z143	X144	Y144	Z144	X145	Y145	Z145	X146	Y146	Z146	X147	Y147	Z147	X148	Y148	Z148	X149	Y149	Z149	X150	Y150	Z150	X151	Y151	Z151	X152	Y152	Z152	X153	Y153	Z153	X154	Y154	Z154	X155	Y155	Z155	X156	Y156	Z156	X157	Y157	Z157	X158	Y158	Z158	X159	Y159	Z159	X160	Y160	Z160	X161	Y161	Z161	X162	Y162	Z162	X163	Y163	Z163	X164	Y164	Z164	X165	Y165	Z165	X166	Y166	Z166	X167	Y167	Z167	X168	Y168	Z168	X169	Y169	Z169	X170	Y170	Z170	X171	Y171	Z171	X172	Y172	Z172	X173	Y173	Z173	X174	Y174	Z174	X175	Y175	Z175	X176	Y176	Z176	X177	Y177	Z177	X178	Y178	Z178	X179	Y179	Z179
165	1.10000	0.445	1.119	-0.301	0.554	1.064	-0.301	-0.257	0.000	-0.396	0.370	0.000	-0.341	0.950	0.001	-0.395	-0.257	-0.000	-0.396	0.418	0.425	-0.323	0.950	0.001	-0.395	-0.257	-0.000	-0.396	0.418	0.425	-0.323	0.950	0.001	-0.395	0.268	0.078	-0.336	0.252	0.074	-0.371	0.543	0.732	-0.408	0.021	0.000	0.000	0.016	0.010	0.002	0.012	0.001	-0.000	1.290	0.020	-0.153	0.000	0.001	0.000	0.562	1.248	-0.383	0.513	0.836	-0.536	0.046	0.000	0.000	-0.000	0.000	0.000	-0.009	-0.000	-0.005	0.000	0.000	0.000	0.000	0.000	-0.000	0.672	1.212	-0.320	0.712	0.662	-0.580	0.550	0.772	-0.557	0.012	-0.008	-0.001	0.001	0.012	0.001	0.001	0.012	0.001	1.287	-0.196	1.360	0.215	0.080	-0.329	0.002	-0.010	-0.000	0.501	0.670	-0.343	-0.020	0.017	0.001	0.001	0.007	0.000	0.002	-0.010	-0.000	-0.728	0.021	-0.439	0.000	-0.001	-0.000	0.426	0.378	-0.346	0.427	0.377	-0.341	0.429	0.380	-0.398	0.433	0.377	-0.393	0.013	-0.020	-0.003	0.004	-0.010	0.001	0.215	0.074	-0.199	0.000	-0.000	-0.000	0.344	0.025	-0.387	0.016	-0.017	-0.005	0.000	-0.001	-0.000	-0.437	0.050	0.053	0.000	-0.000	-0.000	0.013	0.119	-0.005	0.015	-0.004	-0.000	0.337	0.231	-0.411	0.221	0.193	-0.396	0.353	0.136	-0.392	0.493	1.084	-0.438	0.005	0.001	-0.020	0.000	0.001	0.000	0.033	-0.004	-0.016	0.000	0.000	0.000	-0.011	-0.003	-0.001	0.479	0.538	-0.431	0.402	0.443	-0.412	0.467	0.438	-0.413	0.468	0.524	-0.435	0.312	0.226	-0.430	0.361	0.048	-0.353	0.004	-0.001	0.000	0.494	0.897	-0.513	0.684	0.706	-0.544	0.628	0.669	-0.569	0.001	-0.006	-0.000	-0.719	0.152	0.183	0.000	-0.000	-0.000	0.012	0.100	-0.004	0.000	0.000	0.000	0.001	0.000	-0.001	0.000	0.000	0.000	-0.257	0.000	-0.396	0.370	0.000	-0.341	0.950	0.001	-0.395	0.757	0.086	-0.219	0.741	0.071	-0.186	0.559	0.727	-0.180	-0.005	0.000	0.000	-0.010	0.024	-0.004	-0.000	-0.000	0.000	0.007	0.004	-0.002	0.000	0.000	0.000	0.407	1.042	-0.218	0.514	1.273	-0.224	0.416	0.836	-0.100	0.037	0.000	0.000	-0.000	0.000	-0.000	-0.016	-0.000	-0.012	0.000	-0.000	-0.000	-0.000	0.000	0.000	0.642	1.221	-0.210	0.491	0.597	-0.047	0.415	0.683	-0.096	-0.015	-0.009	-0.000	0.000	0.000	0.000	0.000	0.000	0.000	NaN	NaN	NaN	0.722	0.039	-0.237	0.508	0.667	-0.242	-0.020	-0.017	-0.001	0.037	0.005	0.005	0.000	0.002	0.000	0.148	0.003	-0.023	0.000	-0.000	-0.000	0.628	0.372	-0.231	0.627	0.389	-0.228	0.633	0.377	-0.179	0.622	0.393	-0.176	-0.002	-0.041	0.001	-0.000	0.001	0.000	-0.126	0.001	-0.092	0.000	0.000	0.000	0.851	0.075	-0.171	0.016	0.017	0.005	0.000	-0.001	-0.000	-0.437	-0.050	-0.053	0.000	-0.000	-0.000	0.000	0.000	0.000	0.015	0.004	0.000	0.666	0.230	-0.156	0.631	0.113	-0.178	0.754	0.185	-0.164	0.478	1.091	-0.168	-0.018	-0.004	-0.010	0.000	0.001	-0.000	0.001	-0.007	-0.033	0.000	0.000	0.000	-0.011	0.003	0.001	0.584	0.527	-0.151	0.579	0.411	-0.168	0.625	0.434	-0.167	0.579	0.527	-0.141	0.654	0.199	-0.151	0.862	0.100	-0.198	0.004	0.001	-0.000	0.446	0.987	-0.123	0.491	0.650	-0.085	0.420	0.637	-0.090	0.001	-0.006	-0.000	-0.719	-0.152	-0.183	0.000	-0.000	-0.000	0.019	0.093	-0.016	0.000	0.000	-0.000	0.002	-0.000	-0.002	0.000	-0.000	-0.000	-0.257	0.000	-0.396	0.254	-0.000	-0.231	0.254	-0.000	-0.231	-0.000	-0.000	-0.000	0.048	0.425	0.018	0.048	0.425	0.018	0.008	0.001	-0.015	46.786	-6.991	49.301	46.786	-6.991	49.301	0.458	0.754	-0.287	0.453	0.756	-0.292	0.453	0.756	-0.287	0.466	0.805	-0.286	0.418	0.765	-0.287	0.579	1.010	-0.304	0.407	0.968	-0.297	-0.257	-0.000	-0.396	0.418	0.425	-0.323	0.950	0.001	-0.395	0.000	0.000	0.000	0.000	0.000	0.000	0.000	0.000	0.000	0.000	0.000	0.000
166	1.10667	0.454	1.118	-0.300	0.563	1.063	-0.300	-0.257	0.000	-0.396	0.372	0.000	-0.342	0.950	0.001	-0.395	-0.257	-0.000	-0.396	0.422	0.424	-0.323	0.950	0.001	-0.395	-0.257	-0.000	-0.396	0.422	0.424	-0.323	0.950	0.001	-0.395	0.269	0.080	-0.336	0.253	0.076	-0.372	0.553	0.731	-0.407	0.021	0.000	0.000	0.016	0.010	0.002	0.012	0.001	-0.000	1.297	0.023	-0.154	0.000	0.001	0.000	0.570	1.247	-0.381	0.522	0.835	-0.535	0.046	-0.000	0.000	-0.000	0.000	0.000	-0.009	-0.000	-0.005	0.000	0.000	0.000	0.000	-0.000	-0.000	0.679	1.212	-0.319	0.723	0.663	-0.577	0.560	0.771	-0.556	0.014	-0.008	-0.001	0.001	0.012	0.001	0.001	0.012	0.001	1.283	-0.204	1.368	0.216	0.083	-0.330	0.002	-0.010	-0.000	0.510	0.669	-0.343	-0.020	0.017	0.001	0.000	0.007	0.000	0.002	-0.010	-0.000	-0.797	0.025	-0.434	0.000	-0.001	-0.000	0.433	0.378	-0.346	0.434	0.376	-0.341	0.436	0.379	-0.398	0.439	0.376	-0.393	0.014	-0.021	-0.003	0.005	-0.010	0.001	0.254	0.077	-0.179	0.000	-0.000	-0.000	0.344	0.025	-0.387	0.016	-0.017	-0.005	0.000	-0.001	-0.000	-0.508	0.073	0.115	0.000	-0.000	-0.000	0.014	0.119	-0.005	0.015	-0.004	-0.000	0.341	0.232	-0.411	0.224	0.196	-0.396	0.355	0.136	-0.392	0.502	1.083	-0.437	0.005	0.001	-0.019	0.000	0.001	0.000	0.034	-0.004	-0.018	0.000	0.000	0.000	-0.011	-0.003	-0.001	0.487	0.537	-0.431	0.409	0.442	-0.411	0.474	0.437	-0.412	0.476	0.523	-0.435	0.316	0.228	-0.431	0.362	0.048	-0.354	0.004	-0.001	0.000	0.503	0.895	-0.512	0.695	0.707	-0.542	0.639	0.669	-0.566	0.001	-0.006	-0.000	-0.812	0.179	0.227	0.000	-0.000	-0.000	0.012	0.100	-0.004	0.000	0.000	0.000	0.001	-0.000	-0.001	0.000	0.000	0.000	-0.257	0.000	-0.396	0.372	0.000	-0.342	0.950	0.001	-0.395	0.764	0.085	-0.221	0.748	0.069	-0.188	0.568	0.726	-0.180	-0.005	0.000	0.000	-0.010	0.024	-0.004	-0.000	-0.000	0.000	0.006	0.004	-0.002	0.000	0.000	0.000	0.415	1.041	-0.218	0.521	1.272	-0.223	0.423	0.835	-0.100	0.037	-0.000	0.000	-0.000	0.000	-0.000	-0.016	-0.000	-0.012	0.000	-0.000	-0.000	0.000	-0.000	-0.000	0.650	1.221	-0.209	0.498	0.595	-0.047	0.422	0.682	-0.095	-0.015	-0.009	-0.000	0.000	0.000	0.000	0.000	0.000	0.000	NaN	NaN	NaN	0.729	0.038	-0.239	0.517	0.666	-0.241	-0.020	-0.017	-0.001	0.037	0.005	0.004	0.000	0.002	0.000	0.126	0.001	-0.050	0.000	-0.000	-0.000	0.637	0.371	-0.231	0.638	0.389	-0.229	0.643	0.377	-0.179	0.632	0.392	-0.176	-0.002	-0.041	0.000	-0.000	0.001	0.000	-0.105	0.001	-0.090	0.000	0.000	0.000	0.858	0.072	-0.173	0.016	0.017	0.005	0.000	-0.001	-0.000	-0.508	-0.073	-0.115	0.000	-0.000	-0.000	0.000	0.000	0.000	0.015	0.004	0.000	0.675	0.229	-0.157	0.638	0.112	-0.180	0.762	0.184	-0.165	0.486	1.089	-0.167	-0.018	-0.003	-0.010	0.000	0.001	-0.000	0.002	-0.007	-0.032	0.000	0.000	0.000	-0.011	0.003	0.001	0.594	0.526	-0.151	0.588	0.410	-0.169	0.634	0.433	-0.167	0.588	0.526	-0.141	0.662	0.198	-0.152	0.869	0.097	-0.200	0.004	0.001	-0.000	0.454	0.985	-0.122	0.497	0.648	-0.084	0.427	0.636	-0.090	0.001	-0.006	-0.000	-0.812	-0.179	-0.227	0.000	-0.000	-0.000	0.019	0.093	-0.016	0.000	0.000	-0.000	0.002	-0.000	-0.002	0.000	-0.000	-0.000	-0.257	0.000	-0.396	0.254	-0.000	-0.231	0.254	-0.000	-0.231	-0.000	-0.000	-0.000	0.050	0.424	0.018	0.050	0.424	0.018	0.008	0.001	-0.015	46.795	-7.453	49.779	46.795	-7.453	49.779	0.467	0.753	-0.287	0.462	0.755	-0.291	0.462	0.755	-0.286	0.475	0.804	-0.286	0.427	0.764	-0.287	0.588	1.010	-0.302	0.416	0.967	-0.297	-0.257	-0.000	-0.396	0.422	0.424	-0.323	0.950	0.001	-0.395	0.000	0.000	0.000	0.000	0.000	0.000	0.000	0.000	0.000	0.000	0.000	0.000
167	1.11333	0.462	1.117	-0.299	0.571	1.063	-0.299	-0.257	0.000	-0.396	0.374	0.000	-0.341	0.950	0.001	-0.395	-0.257	-0.000	-0.396	0.429	0.422	-0.322	0.950	0.001	-0.395	-0.257	-0.000	-0.396	0.429	0.422	-0.322	0.950	0.001	-0.395	0.270	0.082	-0.337	0.254	0.079	-0.373	0.562	0.730	-0.407	0.021	0.000	0.000	0.015	0.011	0.002	0.011	0.002	-0.000	1.314	0.013	-0.176	0.000	0.001	0.000	0.577	1.247	-0.380	0.531	0.834	-0.533	0.047	-0.000	0.000	-0.000	0.000	0.000	-0.008	-0.000	-0.006	0.000	0.000	0.000	0.000	-0.000	-0.000	0.687	1.212	-0.318	0.735	0.664	-0.574	0.569	0.770	-0.554	0.015	-0.008	-0.001	0.001	0.012	0.001	0.001	0.012	0.001	1.268	-0.215	1.372	0.217	0.086	-0.331	0.002	-0.010	-0.000	0.520	0.668	-0.342	-0.020	0.017	0.001	-0.000	0.006	0.001	0.002	-0.010	-0.000	-0.803	0.013	-0.450	0.000	-0.000	-0.000	0.440	0.377	-0.346	0.441	0.375	-0.341	0.443	0.379	-0.398	0.447	0.375	-0.393	0.015	-0.021	-0.003	0.005	-0.010	0.001	0.268	0.073	-0.193	0.000	-0.000	-0.000	0.344	0.025	-0.387	0.016	-0.017	-0.005	-0.000	-0.000	-0.000	-0.583	0.093	0.171	0.000	-0.000	-0.000	0.015	0.119	-0.005	0.015	-0.004	-0.000	0.345	0.233	-0.411	0.227	0.200	-0.397	0.357	0.137	-0.393	0.511	1.082	-0.436	0.005	0.000	-0.019	0.000	0.001	0.000	0.034	-0.004	-0.021	0.000	0.000	0.000	-0.012	-0.003	-0.000	0.495	0.536	-0.430	0.417	0.442	-0.411	0.482	0.436	-0.412	0.484	0.523	-0.434	0.320	0.230	-0.431	0.362	0.048	-0.354	0.003	-0.001	0.000	0.512	0.894	-0.510	0.705	0.707	-0.539	0.650	0.669	-0.564	0.001	-0.006	-0.000	-0.918	0.203	0.267	0.000	-0.000	-0.000	0.013	0.101	-0.004	0.000	0.000	0.000	0.001	0.000	-0.001	0.000	0.000	0.000	-0.257	0.000	-0.396	0.374	0.000	-0.341	0.950	0.001	-0.395	0.770	0.083	-0.223	0.754	0.067	-0.190	0.577	0.725	-0.179	-0.005	0.000	0.000	-0.011	0.024	-0.004	-0.000	-0.000	0.000	0.004	0.004	-0.003	0.000	0.000	0.000	0.424	1.039	-0.217	0.529	1.271	-0.221	0.431	0.833	-0.099	0.037	0.000	-0.000	-0.000	0.000	-0.000	-0.017	-0.000	-0.012	0.000	-0.000	-0.000	0.000	0.000	-0.000	0.658	1.221	-0.208	0.504	0.594	-0.046	0.429	0.681	-0.095	-0.014	-0.009	0.000	0.000	0.000	0.000	0.000	0.000	0.000	NaN	NaN	NaN	0.735	0.037	-0.240	0.526	0.665	-0.240	-0.020	-0.017	-0.001	0.037	0.005	0.004	0.000	0.002	0.000	0.102	-0.000	-0.077	0.000	-0.000	-0.000	0.647	0.371	-0.232	0.648	0.389	-0.229	0.652	0.376	-0.180	0.643	0.392	-0.177	-0.001	-0.041	0.000	-0.000	0.001	0.000	-0.082	0.000	-0.087	0.000	0.000	0.000	0.864	0.068	-0.175	0.016	0.017	0.005	-0.000	-0.000	-0.000	-0.583	-0.093	-0.171	0.000	-0.000	-0.000	0.000	0.000	0.000	0.015	0.004	0.000	0.683	0.228	-0.158	0.645	0.111	-0.183	0.770	0.182	-0.166	0.494	1.088	-0.166	-0.018	-0.003	-0.010	0.000	0.001	-0.000	0.002	-0.007	-0.032	0.000	0.000	0.000	-0.012	0.003	0.000	0.603	0.526	-0.150	0.598	0.410	-0.169	0.644	0.432	-0.168	0.597	0.525	-0.141	0.669	0.197	-0.154	0.875	0.093	-0.202	0.003	0.001	-0.000	0.462	0.984	-0.121	0.504	0.647	-0.084	0.434	0.635	-0.089	0.001	-0.006	-0.000	-0.918	-0.203	-0.267	0.000	-0.000	-0.000	0.019	0.093	-0.016	0.000	0.000	-0.000	0.002	-0.000	-0.002	0.000	-0.000	-0.000	-0.257	0.000	-0.396	0.254	-0.000	-0.231	0.254	-0.000	-0.231	-0.000	-0.000	-0.000	0.055	0.422	0.019	0.055	0.422	0.019	0.008	0.001	-0.015	46.114	-7.538	50.507	46.114	-7.538	50.507	0.476	0.753	-0.286	0.471	0.754	-0.291	0.471	0.754	-0.286	0.485	0.803	-0.286	0.436	0.763	-0.286	0.596	1.009	-0.301	0.425	0.966	-0.296	-0.257	-0.000	-0.396	0.429	0.422	-0.322	0.950	0.001	-0.395	0.000	0.000	0.000	0.000	0.000	0.000	0.000	0.000	0.000	0.000	0.000	0.000
168	1.12000	0.471	1.116	-0.299	0.580	1.062	-0.297	-0.257	0.000	-0.396	0.375	0.000	-0.341	0.950	0.001	-0.395	-0.257	-0.000	-0.396	0.433	0.412	-0.322	0.950	0.001	-0.395	-0.257	-0.000	-0.396	0.433	0.412	-0.322	0.950	0.001	-0.395	0.272	0.085	-0.338	0.255	0.082	-0.374	0.572	0.728	-0.406	0.020	0.000	0.000	0.015	0.011	0.002	0.011	0.002	-0.000	1.289	0.018	-0.171	0.000	0.002	0.000	0.585	1.247	-0.379	0.540	0.833	-0.532	0.047	-0.000	-0.000	-0.000	0.000	0.000	-0.008	-0.000	-0.006	0.000	0.000	0.000	0.000	-0.000	0.000	0.695	1.213	-0.317	0.745	0.665	-0.571	0.579	0.769	-0.552	0.016	-0.008	-0.001	0.002	0.011	0.001	0.002	0.011	0.001	1.246	-0.223	1.365	0.219	0.089	-0.332	0.002	-0.009	-0.000	0.529	0.667	-0.341	-0.020	0.017	0.001	-0.000	0.006	0.001	0.002	-0.009	-0.000	-0.827	0.016	-0.425	0.000	-0.000	-0.000	0.448	0.376	-0.346	0.449	0.374	-0.340	0.451	0.378	-0.398	0.454	0.374	-0.392	0.015	-0.021	-0.003	0.005	-0.010	0.001	0.296	0.075	-0.166	0.000	-0.000	-0.000	0.344	0.025	-0.387	0.015	-0.016	-0.005	-0.000	0.000	-0.000	-0.644	0.112	0.231	0.000	-0.000	-0.000	0.016	0.117	-0.005	0.015	-0.004	0.000	0.350	0.234	-0.412	0.231	0.203	-0.397	0.360	0.138	-0.394	0.521	1.082	-0.435	0.004	0.000	-0.019	0.000	0.001	0.000	0.035	-0.004	-0.023	0.000	0.000	0.000	-0.012	-0.003	-0.000	0.504	0.535	-0.430	0.425	0.441	-0.411	0.490	0.435	-0.411	0.493	0.522	-0.434	0.325	0.232	-0.431	0.363	0.048	-0.355	0.003	-0.000	0.000	0.521	0.893	-0.508	0.715	0.708	-0.536	0.660	0.669	-0.562	0.001	-0.006	-0.000	-1.003	0.227	0.308	0.000	-0.000	-0.000	0.013	0.101	-0.004	0.000	0.000	0.000	0.001	-0.000	-0.001	0.000	0.000	0.000	-0.257	0.000	-0.396	0.375	0.000	-0.341	0.950	0.001	-0.395	0.775	0.081	-0.225	0.759	0.066	-0.192	0.587	0.725	-0.178	-0.005	0.000	0.000	-0.011	0.024	-0.004	-0.000	-0.000	0.000	0.001	0.004	-0.003	0.000	0.000	0.000	0.432	1.038	-0.217	0.537	1.271	-0.220	0.439	0.832	-0.099	0.037	-0.000	-0.000	-0.000	0.000	-0.000	-0.017	-0.000	-0.012	0.000	-0.000	-0.000	0.000	-0.000	-0.000	0.666	1.221	-0.207	0.510	0.592	-0.045	0.436	0.680	-0.094	-0.012	-0.009	0.001	0.000	0.000	0.000	0.000	0.000	0.000	NaN	NaN	NaN	0.739	0.036	-0.242	0.535	0.665	-0.239	-0.020	-0.017	-0.001	0.037	0.005	0.004	0.000	0.002	0.000	0.079	-0.002	-0.101	0.000	-0.000	-0.000	0.657	0.371	-0.232	0.659	0.389	-0.230	0.662	0.376	-0.180	0.654	0.392	-0.177	0.000	-0.041	0.000	-0.000	0.001	0.000	-0.060	-0.000	-0.083	0.000	0.000	0.000	0.868	0.064	-0.177	0.015	0.016	0.005	-0.000	0.000	-0.000	-0.644	-0.112	-0.231	0.000	-0.000	-0.000	0.000	0.000	0.000	0.015	0.004	-0.000	0.691	0.227	-0.160	0.651	0.111	-0.184	0.777	0.180	-0.168	0.502	1.087	-0.165	-0.018	-0.003	-0.010	0.000	0.001	-0.000	0.003	-0.007	-0.032	0.000	0.000	0.000	-0.012	0.003	0.000	0.613	0.526	-0.150	0.608	0.410	-0.169	0.654	0.432	-0.168	0.607	0.525	-0.141	0.676	0.197	-0.155	0.880	0.089	-0.203	0.003	0.000	-0.000	0.470	0.983	-0.121	0.511	0.645	-0.083	0.441	0.634	-0.089	0.001	-0.006	-0.000	-1.003	-0.227	-0.308	0.000	-0.000	-0.000	0.019	0.092	-0.016	0.000	0.000	-0.000	0.002	0.000	-0.003	0.000	-0.000	-0.000	-0.257	0.000	-0.396	0.254	-0.000	-0.231	0.254	-0.000	-0.231	-0.000	-0.000	-0.000	0.058	0.412	0.019	0.058	0.412	0.019	0.008	0.001	-0.015	45.227	-8.091	49.681	45.227	-8.091	49.681	0.486	0.752	-0.285	0.480	0.753	-0.290	0.481	0.753	-0.285	0.494	0.802	-0.285	0.445	0.763	-0.286	0.605	1.008	-0.300	0.434	0.965	-0.296	-0.257	-0.000	-0.396	0.433	0.412	-0.322	0.950	0.001	-0.395	0.000	0.000	0.000	0.000	0.000	0.000	0.000	0.000	0.000	0.000	0.000	0.000
